#N canvas 0 23 598 657 10;
#X floatatom 324 501 5 0 3500 0 - - -;
#X floatatom 254 502 5 -90 90 0 - - -;
#X floatatom 178 502 5 0 0 0 - - -;
#X text 257 485 Elevation;
#X text 329 485 Distance;
#X text 211 501 deg;
#X text 286 501 deg;
#X text 357 500 cm;
#X obj 144 569 dac~ 1 2;
#X obj 144 383 /~ 1;
#X obj 171 2 bng 15 250 50 0 empty empty empty 17 7 0 10 -262144 -1
-1;
#X obj 143 -17 bng 15 250 50 0 empty empty empty 17 7 0 10 -262144
-1 -1;
#X msg 171 78 1;
#X msg 143 78 0;
#X text 189 0 Start;
#X text 163 -19 Stop;
#X obj 144 233 *~ 0.5;
#X floatatom 283 208 5 0 0 0 - - -;
#X obj 21 447 vu 15 120 empty empty -1 -8 0 10 -66577 -1 1 0;
#X obj 20 420 - 100;
#X obj 20 400 env~ 8192;
#X text 61 474 fs;
#X text 58 420 0dBfs = 100dB;
#X obj 177 172 r volume;
#X obj 143 -41 select 0 1;
#X obj 177 211 / 127;
#X text 182 486 Azimuth;
#X obj 164 293 r dist_volume;
#X obj 164 319 expr $f1 \; if($f1 <=0.15 \, 0.15 \, $f1);
#X obj 165 363 / 0.15;
#X obj 144 544 earplug~ 0 0;
#X obj 324 523 s dist_volume;
#X obj 143 112 readsf~;
#X text 232 -11 audio on/off;
#X msg 234 -45 \; pd dsp \$1;
#X obj 191 195 hsl 128 15 0 127 0 0 empty empty empty -2 -8 0 10 -262144
-1 -1 4500 1;
#X text 233 171 set volume from OSC;
#X text 252 288 set volume from distance;
#X text 203 568 audio output;
#N canvas 628 136 652 581 OSC_receiver 1;
#X msg 330 173 1 \$1 \$2 \$3;
#X obj 330 197 spray 4;
#X obj 191 187 s trigger;
#X obj 462 201 print OSC;
#X obj 191 146 route TriggerOnOff;
#X obj 330 147 route Position;
#X obj 343 271 s dist;
#X obj 356 248 s azim;
#X obj 369 226 s elev;
#X obj 462 154 gate;
#X obj 510 118 tgl 15 0 empty empty empty 17 7 0 10 -262144 -1 -1 1
1;
#X obj 510 63 loadbang;
#X msg 510 93 1;
#X text 27 21 This patch receives OSC messages from Blender (12002@localhost)
;
#X obj 191 168 tgl 15 0 empty empty empty 17 7 0 10 -262144 -1 -1 0
1;
#X obj 381 59;
#X obj 206 314 print;
#X obj 156 270;
#X obj 277 59 dumpOSC 8000;
#X obj 52 145 route Volume;
#X obj 52 204 send volume;
#X obj 75 379 tgl 15 0 empty empty empty 17 7 0 10 -262144 -1 -1 1
1;
#X obj 74 357 route cymbalOnOff;
#X obj 74 398 s trigg;
#X connect 0 0 1 0;
#X connect 1 1 6 0;
#X connect 1 2 7 0;
#X connect 1 3 8 0;
#X connect 4 0 14 0;
#X connect 5 0 0 0;
#X connect 9 0 3 0;
#X connect 10 0 9 0;
#X connect 11 0 12 0;
#X connect 12 0 10 0;
#X connect 14 0 2 0;
#X connect 18 0 4 0;
#X connect 18 0 5 0;
#X connect 18 0 9 1;
#X connect 18 0 16 0;
#X connect 18 0 19 0;
#X connect 18 0 22 0;
#X connect 19 0 20 0;
#X connect 21 0 23 0;
#X connect 22 0 21 0;
#X restore 8 -58 pd OSC_receiver;
#X text 201 77 Load and read audio file;
#X obj 182 134 bng 15 250 50 0 empty empty empty 17 7 0 10 -262144
-1 -1;
#X text 200 132 bang when finished reading;
#X floatatom 311 357 5 0 0 0 - - -;
#X obj 143 -62 r trigger;
#X text 320 318 limit minimum distance;
#X obj 178 465 r azim;
#X obj 254 466 r elev;
#X obj 324 443 r dist;
#X obj 324 466 * 0.01;
#X msg 204 95 open shclkonk.wav \, 1;
#X obj 404 16 bng 15 250 50 0 empty empty empty 17 7 0 10 -262144 -1
-1;
#X obj 376 -3 bng 15 250 50 0 empty empty empty 17 7 0 10 -262144 -1
-1;
#X msg 404 92 1;
#X msg 376 92 0;
#X text 422 14 Start;
#X text 396 -5 Stop;
#X obj 377 247 *~ 0.5;
#X floatatom 516 222 5 0 0 0 - - -;
#X obj 376 -27 select 0 1;
#X obj 410 225 / 127;
#X obj 376 126 readsf~;
#X text 465 3 audio on/off;
#X msg 467 -31 \; pd dsp \$1;
#X obj 424 209 hsl 128 15 0 127 0 0 empty empty empty -2 -8 0 10 -262144
-1 -1 4500 1;
#X text 434 91 Load and read audio file;
#X obj 415 148 bng 15 250 50 0 empty empty empty 17 7 0 10 -262144
-1 -1;
#X text 433 146 bang when finished reading;
#X msg 437 109 open cymbal.wav \, 1;
#X obj 376 -47 r trigg;
#X connect 0 0 31 0;
#X connect 1 0 30 2;
#X connect 2 0 30 1;
#X connect 9 0 20 0;
#X connect 9 0 30 0;
#X connect 10 0 12 0;
#X connect 11 0 13 0;
#X connect 12 0 50 0;
#X connect 13 0 32 0;
#X connect 16 0 9 0;
#X connect 19 0 18 0;
#X connect 20 0 19 0;
#X connect 23 0 35 0;
#X connect 24 0 11 0;
#X connect 24 1 10 0;
#X connect 25 0 16 1;
#X connect 27 0 28 0;
#X connect 28 1 29 0;
#X connect 28 1 43 0;
#X connect 29 0 9 1;
#X connect 30 0 8 0;
#X connect 30 1 8 1;
#X connect 32 0 16 0;
#X connect 32 1 50 0;
#X connect 32 1 41 0;
#X connect 35 0 17 0;
#X connect 35 0 25 0;
#X connect 44 0 24 0;
#X connect 44 0 34 0;
#X connect 46 0 2 0;
#X connect 47 0 1 0;
#X connect 48 0 49 0;
#X connect 49 0 0 0;
#X connect 50 0 32 0;
#X connect 51 0 53 0;
#X connect 52 0 54 0;
#X connect 53 0 68 0;
#X connect 54 0 61 0;
#X connect 57 0 9 0;
#X connect 59 0 52 0;
#X connect 59 1 51 0;
#X connect 60 0 57 1;
#X connect 61 0 57 0;
#X connect 61 1 68 0;
#X connect 61 1 66 0;
#X connect 64 0 58 0;
#X connect 64 0 60 0;
#X connect 68 0 61 0;
#X connect 69 0 59 0;
#X connect 69 0 63 0;
